<?xml version="1.0" encoding="utf-8"?>
<!-- Generator: Adobe Illustrator 16.0.0, SVG Export Plug-In . SVG Version: 6.00 Build 0)  -->
<!DOCTYPE svg PUBLIC "-//W3C//DTD SVG 1.1//EN" "http://www.w3.org/Graphics/SVG/1.1/DTD/svg11.dtd">
<svg version="1.1" xmlns="http://www.w3.org/2000/svg" xmlns:xlink="http://www.w3.org/1999/xlink" x="0px" y="0px"
	 width="21.875px" height="21.875px" viewBox="0 0 21.875 21.875" enable-background="new 0 0 21.875 21.875" xml:space="preserve">
<g id="Layer_4" display="none">
	
		<image display="inline" overflow="visible" width="18" height="24" xlink:href="../Downloads/yoooo/glyphicons-673-kettlebell.png"  transform="matrix(0.8497 0 0 0.8497 3.4233 1.0347)">
	</image>
</g>
<g id="Layer_3">
	<g>
		<line fill="#420863" x1="14.587" y1="21.873" x2="14.587" y2="21.873"/>
		<line fill="#420863" x1="14.587" y1="21.873" x2="14.587" y2="21.873"/>
		<line fill="#420863" x1="14.587" y1="21.873" x2="14.587" y2="21.873"/>
		<line fill="#420863" x1="14.587" y1="21.873" x2="14.587" y2="21.873"/>
		<line fill="#420863" x1="14.587" y1="21.873" x2="14.587" y2="21.873"/>
		<line fill="#420863" x1="14.587" y1="21.873" x2="14.587" y2="21.873"/>
		<line fill="#420863" x1="14.587" y1="21.873" x2="14.587" y2="21.873"/>
		<line fill="#420863" x1="14.587" y1="21.873" x2="14.587" y2="21.873"/>
		<line fill="#420863" x1="14.587" y1="21.873" x2="14.587" y2="21.873"/>
		<path fill="#420863" d="M6.531,21.38c-1.805-1.345-2.973-3.494-2.973-5.917c0-2.421,1.167-4.569,2.969-5.915"/>
		<line fill="#420863" x1="7.287" y1="21.875" x2="7.282" y2="21.872"/>
		<polyline fill="#420863" points="15.345,21.376 6.527,21.376 6.527,9.549 15.345,9.549 15.345,21.376 		"/>
		<circle fill="none" stroke="#420863" stroke-width="2" stroke-miterlimit="10" cx="11.012" cy="6.914" r="5.512"/>
		<path fill="#420863" d="M15.345,21.378c1.806-1.345,2.974-3.494,2.973-5.917c0-2.421-1.167-4.569-2.968-5.915"/>
	</g>
</g>
<g id="Layer_2" display="none">
	<g display="inline">
		
			<rect x="3.778" y="11.427" transform="matrix(-0.7071 0.7071 -0.7071 -0.7071 28.6357 16.3531)" fill="#420863" width="14.306" height="5.361"/>
		
			<rect x="3.792" y="5.088" transform="matrix(-0.7071 -0.7071 0.7071 -0.7071 13.1915 20.9994)" fill="#420863" width="14.305" height="5.361"/>
	</g>
</g>
</svg>
